<svg xmlns="http://www.w3.org/2000/svg" xmlns:xlink="http://www.w3.org/1999/xlink" xmlns:svgjs="http://svgjs.com/svgjs" width="285" height="42.137001037597656" style=""><rect id="backgroundrect" width="100%" height="100%" x="0" y="0" fill="none" stroke="none" class="" style=""/><g class="currentLayer" style=""><title>Layer 1</title><g id="svg_1" class="" stroke="none"><svg xmlns="http://www.w3.org/2000/svg" width="285" height="43" viewBox="5.93 2 284.07 42" fill="#fceeb5" id="svg_2" x="-0.1508581042289734" y="-0.35166865587234497"><path fill="#fceeb5" paint-order="stroke fill markers" fill-rule="evenodd" d="M25 2h255c5.523 0 10 4.477 10 10v22c0 5.523-4.477 10-10 10H25c-5.523 0-10-4.477-10-10V12c0-5.523 4.477-10 10-10zM15 22s-2.5 7.5-8 8 12 7 12 7V23l-4-1" id="svg_3" stroke="none"/></svg></g><polyline fill="#fceeb5" stroke-dashoffset="" fill-rule="nonzero" marker-start="" marker-mid="" marker-end="" id="svg_6" points="24.969695679281216,92.14426207909902 19.63636234594788,94.81092874576571 19.63636234594788,95.47759541243236 18.969695679281216,95.47759541243236 17.63636234594788,95.81092874576571 16.969695679281216,96.47759541243236 16.303029012614545,97.14426207909902 15.303029012614545,97.81092874576571 14.303029012614545,98.81092874576571 12.969695679281216,99.14426207909902 12.969695679281216,99.81092874576571 12.63636234594788,100.47759541243236 12.63636234594788,100.81092874576571 12.63636234594788,101.47759541243236 12.63636234594788,101.81092874576571 12.969695679281216,102.47759541243236 13.63636234594788,102.81092874576571 15.63636234594788,102.81092874576571 17.63636234594788,103.14426207909902 18.303029012614545,103.14426207909902 18.63636234594788,103.14426207909902 19.63636234594788,103.14426207909902 20.969695679281216,103.14426207909902 21.969695679281216,103.14426207909902 22.636362345947884,103.14426207909902 22.969695679281216,103.14426207909902 22.969695679281216,102.47759541243236 22.969695679281216,102.47759541243236 23.303029012614545,101.81092874576571 23.303029012614545,101.47759541243236 " style="color: rgb(0, 0, 0);"/><polyline fill="#fceeb5" stroke-dashoffset="" fill-rule="nonzero" marker-start="" marker-mid="" marker-end="" id="svg_7" points="17.969695679281216,95.47759541243236 15.969695679281216,95.47759541243236 15.63636234594788,95.47759541243236 14.63636234594788,95.47759541243236 14.303029012614545,95.47759541243236 13.63636234594788,95.47759541243236 13.303029012614545,95.81092874576571 12.969695679281216,96.14426207909902 12.969695679281216,96.81092874576571 12.969695679281216,96.81092874576571 12.969695679281216,97.14426207909902 12.969695679281216,97.81092874576571 12.63636234594788,98.47759541243236 12.63636234594788,98.81092874576571 12.63636234594788,99.14426207909902 12.63636234594788,99.14426207909902 12.63636234594788,99.81092874576571 12.63636234594788,100.14426207909902 12.969695679281216,100.14426207909902 12.969695679281216,100.47759541243236 13.63636234594788,100.81092874576571 14.303029012614545,100.81092874576571 14.63636234594788,101.14426207909902 15.303029012614545,101.14426207909902 15.63636234594788,101.47759541243236 15.969695679281216,101.47759541243236 16.303029012614545,101.47759541243236 16.303029012614545,101.81092874576571 16.63636234594788,102.14426207909902 16.969695679281216,102.14426207909902 17.303029012614545,102.14426207909902 17.969695679281216,102.14426207909902 18.63636234594788,102.14426207909902 " style="color: rgb(0, 0, 0);" class=""/><polyline fill="#fceeb5" stroke="#fceeb5" stroke-dashoffset="" fill-rule="nonzero" marker-start="" marker-mid="" marker-end="" id="svg_4" points="10.66063117980957,18.049705505371094 10.425336837768555,19.10852813720703 10.30769157409668,19.343822479248047 10.30769157409668,19.461471557617188 10.190046310424805,19.696762084960938 10.072397232055664,19.814411163330078 10.072397232055664,19.932056427001953 10.072397232055664,20.049705505371094 9.954751968383789,20.049705505371094 9.954751968383789,20.16735076904297 9.837102890014648,20.28499984741211 9.719457626342773,20.28499984741211 9.601808547973633,20.28499984741211 9.484163284301758,20.402645111083984 9.484163284301758,20.520294189453125 9.484163284301758,20.637939453125 9.484163284301758,20.75558853149414 9.484163284301758,20.873233795166016 9.484163284301758,20.990882873535156 9.484163284301758,21.10852813720703 9.484163284301758,21.343822479248047 9.484163284301758,21.461471557617188 9.484163284301758,21.579116821289062 9.366514205932617,21.579116821289062 9.366514205932617,21.461471557617188 9.366514205932617,21.343822479248047 9.366514205932617,21.226177215576172 9.366514205932617,21.10852813720703 9.484163284301758,21.10852813720703 9.484163284301758,21.226177215576172 9.484163284301758,21.343822479248047 9.484163284301758,21.461471557617188 9.484163284301758,21.579116821289062 9.484163284301758,21.696762084960938 9.484163284301758,21.814411163330078 9.484163284301758,21.932056427001953 9.484163284301758,22.049705505371094 9.484163284301758,22.16735076904297 9.484163284301758,22.28499984741211 9.484163284301758,22.520294189453125 9.484163284301758,22.637939453125 9.484163284301758,22.75558853149414 9.366514205932617,22.873233795166016 9.248868942260742,22.990882873535156 9.248868942260742,22.873233795166016 9.248868942260742,22.75558853149414 9.248868942260742,22.637939453125 9.248868942260742,22.520294189453125 9.013574600219727,22.520294189453125 8.895925521850586,22.520294189453125 8.778280258178711,22.520294189453125 8.66063117980957,22.520294189453125 8.778280258178711,22.520294189453125 8.895925521850586,22.520294189453125 9.131219863891602,22.520294189453125 9.248868942260742,22.520294189453125 9.484163284301758,22.402645111083984 9.484163284301758,22.520294189453125 9.484163284301758,22.75558853149414 9.484163284301758,22.990882873535156 9.484163284301758,23.343822479248047 9.484163284301758,23.461471557617188 9.484163284301758,23.696762084960938 9.484163284301758,23.932056427001953 9.366514205932617,23.932056427001953 9.366514205932617,24.049705505371094 9.366514205932617,24.28499984741211 9.366514205932617,24.402645111083984 9.248868942260742,24.637939453125 9.248868942260742,24.75558853149414 9.248868942260742,24.873233795166016 9.248868942260742,24.990882873535156 9.248868942260742,25.10852813720703 9.248868942260742,25.226177215576172 9.131219863891602,25.343822479248047 9.131219863891602,25.461471557617188 8.895925521850586,25.696762084960938 8.778280258178711,25.696762084960938 8.778280258178711,25.814411163330078 8.778280258178711,25.932056427001953 8.778280258178711,26.049705505371094 8.778280258178711,26.16735076904297 8.778280258178711,26.28499984741211 8.66063117980957,26.402645111083984 8.66063117980957,26.520294189453125 8.542985916137695,26.637939453125 8.542985916137695,26.75558853149414 8.542985916137695,26.873233795166016 8.542985916137695,26.990882873535156 8.542985916137695,27.226177215576172 8.542985916137695,27.343822479248047 8.542985916137695,27.461471557617188 8.542985916137695,27.579116821289062 8.542985916137695,27.696762084960938 8.542985916137695,27.814411163330078 8.542985916137695,27.932056427001953 8.542985916137695,28.049705505371094 8.542985916137695,28.16735076904297 8.542985916137695,28.402645111083984 8.542985916137695,28.520294189453125 8.542985916137695,28.75558853149414 8.542985916137695,28.873233795166016 8.542985916137695,28.990882873535156 8.542985916137695,29.10852813720703 8.542985916137695,29.226177215576172 8.542985916137695,29.343822479248047 8.542985916137695,29.461471557617188 8.542985916137695,29.696762084960938 8.542985916137695,29.814411163330078 8.542985916137695,30.049705505371094 8.542985916137695,30.28499984741211 8.542985916137695,30.402645111083984 8.542985916137695,30.520294189453125 8.542985916137695,30.637939453125 8.542985916137695,30.75558853149414 8.542985916137695,30.873233795166016 8.542985916137695,30.990882873535156 8.66063117980957,31.10852813720703 8.66063117980957,31.226177215576172 8.778280258178711,31.343822479248047 8.895925521850586,31.461471557617188 9.013574600219727,31.579116821289062 9.013574600219727,31.696762084960938 9.013574600219727,31.814411163330078 9.131219863891602,31.814411163330078 9.131219863891602,31.932056427001953 9.248868942260742,31.932056427001953 9.248868942260742,32.049705505371094 9.248868942260742,32.28499984741211 9.366514205932617,32.28499984741211 9.366514205932617,32.402645111083984 9.484163284301758,32.402645111083984 9.484163284301758,32.520294189453125 9.484163284301758,32.637939453125 9.366514205932617,32.637939453125 9.366514205932617,32.75558853149414 9.366514205932617,32.873233795166016 9.366514205932617,32.990882873535156 9.366514205932617,33.10852813720703 9.366514205932617,33.22617721557617 9.366514205932617,33.34382247924805 9.484163284301758,33.34382247924805 9.601808547973633,33.46147155761719 9.719457626342773,33.57911682128906 9.837102890014648,33.57911682128906 9.837102890014648,33.69676208496094 9.954751968383789,33.69676208496094 10.072397232055664,33.81441116333008 10.190046310424805,33.93205642700195 10.30769157409668,33.93205642700195 10.425336837768555,34.049705505371094 10.542985916137695,34.049705505371094 10.542985916137695,34.16735076904297 10.66063117980957,34.16735076904297 10.778280258178711,34.16735076904297 10.895925521850586,34.16735076904297 11.013574600219727,34.16735076904297 11.131219863891602,34.28499984741211 11.248868942260742,34.28499984741211 11.366514205932617,34.402645111083984 11.484163284301758,34.402645111083984 11.601808547973633,34.402645111083984 11.719457626342773,34.402645111083984 11.837102890014648,34.402645111083984 11.954751968383789,34.520294189453125 12.072397232055664,34.520294189453125 12.190046310424805,34.637939453125 12.30769157409668,34.637939453125 12.425336837768555,34.637939453125 12.542985916137695,34.75558853149414 12.66063117980957,34.75558853149414 12.778280258178711,34.75558853149414 12.895925521850586,34.873233795166016 13.013574600219727,34.873233795166016 13.248868942260742,34.990882873535156 13.484163284301758,34.990882873535156 13.601808547973633,35.10852813720703 13.719457626342773,35.22617721557617 13.837102890014648,35.22617721557617 13.954751968383789,35.22617721557617 14.072397232055664,35.22617721557617 14.30769157409668,35.22617721557617 14.425336837768555,35.22617721557617 14.66063117980957,35.22617721557617 14.778280258178711,34.990882873535156 15.131219863891602,34.873233795166016 15.248868942260742,34.637939453125 15.366514205932617,34.520294189453125 15.601808547973633,33.93205642700195 15.719457626342773,33.34382247924805 15.837102890014648,32.873233795166016 15.954751968383789,32.16735076904297 15.954751968383789,31.461471557617188 15.954751968383789,30.402645111083984 15.954751968383789,29.814411163330078 15.954751968383789,29.461471557617188 15.954751968383789,28.990882873535156 15.954751968383789,28.520294189453125 15.954751968383789,28.16735076904297 15.954751968383789,27.932056427001953 15.954751968383789,27.696762084960938 15.954751968383789,27.343822479248047 15.954751968383789,27.226177215576172 15.954751968383789,26.16735076904297 15.954751968383789,25.932056427001953 15.954751968383789,25.696762084960938 15.954751968383789,25.343822479248047 16.072397232055664,24.990882873535156 16.072397232055664,24.873233795166016 16.072397232055664,24.75558853149414 16.190046310424805,24.75558853149414 " style="color: rgb(0, 0, 0);" class=""/><polyline fill="#fceeb5" stroke="#fceeb5" stroke-dashoffset="" fill-rule="nonzero" marker-start="" marker-mid="" marker-end="" id="svg_5" points="44.94117647058824,32.65673648609834 44.352941176470594,34.18614825080422 44.70588235294118,35.83320707433364 45.64705882352941,36.53908942727482 46.11764705882353,36.8920306037454 47.294117647058826,37.48026589786305 47.88235294117647,37.48026589786305 48.70588235294118,37.48026589786305 49.88235294117647,37.36261883903953 50.82352941176471,36.8920306037454 51.529411764705884,36.18614825080422 51.76470588235294,35.597912956686585 51.76470588235294,34.8920306037454 51.76470588235294,34.0685011919807 51.76470588235294,33.127324721392455 51.76470588235294,32.30379530962776 51.76470588235294,31.71556001551011 51.76470588235294,31.009677662568926 51.411764705882355,30.421442368451288 51.05882352941177,29.95085413315717 50.47058823529412,29.480265897863053 49.88235294117647,29.12732472139246 49.411764705882355,29.00967766256893 48.94117647058824,28.8920306037454 48.23529411764706,28.656736486098342 47.76470588235294,28.656736486098342 47.411764705882355,28.656736486098342 46.94117647058824,28.656736486098342 46.23529411764706,28.303795309627755 45.76470588235294,28.303795309627755 45.411764705882355,28.303795309627755 45.294117647058826,28.303795309627755 44.82352941176471,28.303795309627755 44.11764705882353,28.421442368451284 43.76470588235294,28.77438354492187 43.529411764705884,29.244971780215995 43.411764705882355,29.71556001551011 43.411764705882355,29.95085413315717 43.411764705882355,30.068501191980697 " style="color: rgb(0, 0, 0);"/></g></svg>